<?xml version="1.0" encoding="UTF-8" standalone="no"?>
<svg
   xmlns:dc="http://purl.org/dc/elements/1.1/"
   xmlns:cc="http://creativecommons.org/ns#"
   xmlns:rdf="http://www.w3.org/1999/02/22-rdf-syntax-ns#"
   xmlns:svg="http://www.w3.org/2000/svg"
   xmlns="http://www.w3.org/2000/svg"
   viewBox="0 0 289.30667 147.44"
   height="147.44"
   width="289.30667"
   xml:space="preserve"
   id="svg2"
   version="1.1"><metadata
     id="metadata8"><rdf:RDF><cc:Work
         rdf:about=""><dc:format>image/svg+xml</dc:format><dc:type
           rdf:resource="http://purl.org/dc/dcmitype/StillImage" /></cc:Work></rdf:RDF></metadata><defs
     id="defs6" /><g
     transform="matrix(1.3333333,0,0,-1.3333333,0,147.44)"
     id="g10"><g
       transform="scale(0.1)"
       id="g12"><path
         id="path14"
         style="fill:#172258;fill-opacity:1;fill-rule:nonzero;stroke:none"
         d="M 228.574,705.734 171.43,739.07 v 66.668 l 57.144,33.336 57.149,-33.336 V 739.07 l -57.149,-33.336" /><path
         id="path16"
         style="fill:#172258;fill-opacity:1;fill-rule:nonzero;stroke:none"
         d="m 228.574,572.398 -57.144,33.336 v 66.664 l 57.144,33.336 57.149,-33.336 v -66.664 l -57.149,-33.336" /><path
         id="path18"
         style="fill:#172258;fill-opacity:1;fill-rule:nonzero;stroke:none"
         d="m 114.281,905.738 -57.1404,33.336 v 66.676 l 57.1404,33.33 57.149,-33.33 v -66.676 l -57.149,-33.336" /><path
         id="path20"
         style="fill:#172258;fill-opacity:1;fill-rule:nonzero;stroke:none"
         d="M 114.281,772.406 57.1406,805.738 V 872.41 L 114.281,905.738 171.43,872.41 V 805.738 L 114.281,772.406" /><path
         id="path22"
         style="fill:#172258;fill-opacity:1;fill-rule:nonzero;stroke:none"
         d="M 114.281,639.066 57.1406,672.398 V 739.07 L 114.281,772.406 171.43,739.07 V 672.398 L 114.281,639.066" /><path
         id="path24"
         style="fill:#172258;fill-opacity:1;fill-rule:nonzero;stroke:none"
         d="M 0,839.074 V 972.41 L 57.1406,939.074 V 872.41 L 0,839.074" /><path
         id="path26"
         style="fill:#172258;fill-opacity:1;fill-rule:nonzero;stroke:none"
         d="m 0,705.734 v 133.34 L 57.1406,805.738 V 739.07 L 0,705.734" /><path
         id="path28"
         style="fill:#f9a70d;fill-opacity:1;fill-rule:nonzero;stroke:none"
         d="m 228.574,972.41 -57.144,33.34 v 66.66 l 57.144,33.34 57.149,-33.34 v -66.66 l -57.149,-33.34" /><path
         id="path30"
         style="fill:#f9a70d;fill-opacity:1;fill-rule:nonzero;stroke:none"
         d="M 228.574,839.074 171.43,872.41 v 66.664 l 57.144,33.336 57.149,-33.336 V 872.41 l -57.149,-33.336" /><path
         id="path32"
         style="fill:#f9a70d;fill-opacity:1;fill-rule:nonzero;stroke:none"
         d="m 342.859,905.738 -57.136,33.336 v 66.676 l 57.136,33.33 57.145,-33.33 v -66.676 l -57.145,-33.336" /><path
         id="path34"
         style="fill:#f9a70d;fill-opacity:1;fill-rule:nonzero;stroke:none"
         d="m 342.859,772.406 -57.136,33.332 v 66.672 l 57.136,33.328 57.145,-33.328 v -66.672 l -57.145,-33.332" /><path
         id="path36"
         style="fill:#f9a70d;fill-opacity:1;fill-rule:nonzero;stroke:none"
         d="m 342.859,639.066 -57.136,33.332 v 66.672 l 57.136,33.336 57.145,-33.336 v -66.672 l -57.145,-33.332" /><path
         id="path38"
         style="fill:#f9a70d;fill-opacity:1;fill-rule:nonzero;stroke:none"
         d="m 457.152,839.074 -57.14,33.336 -0.008,66.664 57.148,33.336 V 839.074" /><path
         id="path40"
         style="fill:#f9a70d;fill-opacity:1;fill-rule:nonzero;stroke:none"
         d="m 457.152,705.734 -57.14,33.336 -0.008,66.668 57.148,33.336 v -133.34" /><path
         id="path42"
         style="fill:#172258;fill-opacity:1;fill-rule:nonzero;stroke:none"
         d="m 601.699,1089.82 c 7.809,0 13.621,-2.75 17.281,-8.17 3.692,-5.48 5.563,-11.74 5.563,-18.61 0,-8.49 -1.965,-15.41 -5.836,-20.57 -3.848,-5.13 -9.57,-7.73 -17.008,-7.73 h -13.972 v 55.08 z m 24.391,-52.96 c 5.465,6.91 8.23,15.51 8.23,25.55 0,9.91 -2.836,18.41 -8.441,25.27 -5.625,6.88 -13.59,10.37 -23.66,10.37 h -24.168 v -71.64 h 27.07 c 8.43,0 15.481,3.52 20.969,10.45" /><path
         id="path44"
         style="fill:#172258;fill-opacity:1;fill-rule:nonzero;stroke:none"
         d="m 650.668,1058.77 c 0.391,4.59 1.937,8.3 4.598,11.04 2.726,2.81 6.097,4.24 10.011,4.24 2.907,0 5.426,-0.79 7.493,-2.33 2.074,-1.56 3.562,-3.47 4.433,-5.67 0.84,-2.12 1.309,-4.57 1.41,-7.28 z m 14.141,-33.81 c 5.5,0 10.343,1.51 14.406,4.48 4.066,2.97 6.84,6.78 8.242,11.32 l 0.125,0.42 -8.008,1.64 -0.328,0.08 -0.125,-0.32 c -2.691,-6.78 -7.187,-10.07 -13.738,-10.07 -3.59,0 -7.047,1.37 -10.278,4.06 -3.156,2.63 -4.777,7.78 -4.835,15.32 h 38.093 l -0.008,0.41 c -0.109,9.5 -2.296,16.75 -6.507,21.54 -4.231,4.8 -9.891,7.24 -16.828,7.24 -7.04,0 -12.973,-2.64 -17.633,-7.85 -4.649,-5.19 -7,-12.09 -7,-20.49 0,-8.24 2.258,-14.99 6.738,-20.08 4.484,-5.11 10.438,-7.7 17.684,-7.7" /><path
         id="path46"
         style="fill:#172258;fill-opacity:1;fill-rule:nonzero;stroke:none"
         d="m 720.605,1073.17 c 3.961,0 7.176,-1.75 9.583,-5.2 2.425,-3.5 3.66,-8.56 3.66,-15.05 0,-7.51 -1.36,-12.85 -4.024,-15.88 -2.656,-3 -5.742,-4.53 -9.172,-4.53 -2.961,0 -5.855,1.27 -8.597,3.78 -2.754,2.5 -4.403,5.72 -4.907,9.52 v 14.74 c 0.817,3.49 2.497,6.5 4.997,8.95 2.484,2.43 5.332,3.67 8.46,3.67 z m -13.457,-39.79 c 3.77,-5.59 8.848,-8.42 15.118,-8.42 6.226,0 11.39,2.59 15.363,7.68 3.941,5.08 5.945,12.01 5.945,20.61 0,7.98 -1.941,14.68 -5.769,19.9 -3.867,5.26 -9.016,7.93 -15.305,7.93 -6.969,0 -12.383,-3.48 -16.129,-10.35 v 8.9 h -8.168 v -70.91 h 8.945 v 24.66" /><path
         id="path48"
         style="fill:#172258;fill-opacity:1;fill-rule:nonzero;stroke:none"
         d="m 769.086,1032.04 c -3.512,0 -6.219,0.88 -8.055,2.6 -1.82,1.71 -2.75,3.82 -2.75,6.26 0,3.94 1.684,6.86 5.149,8.91 3.484,2.07 8.461,3.12 14.789,3.12 1.676,0 4.094,-0.1 7.203,-0.29 0.086,-1.15 0.125,-2.17 0.125,-3.05 0,-4.7 -1.563,-8.84 -4.649,-12.32 -3.07,-3.47 -7.043,-5.23 -11.812,-5.23 z m -13.426,22.62 c -4.582,-3.48 -6.898,-7.99 -6.898,-13.4 0,-4.45 1.625,-8.32 4.836,-11.51 3.211,-3.18 7.863,-4.79 13.828,-4.79 8.262,0 14.332,3.32 18.062,9.87 0.282,-3.93 0.567,-6.58 0.844,-8.09 l 0.063,-0.33 h 8.882 l -0.109,0.5 c -0.719,3.03 -1.086,6.42 -1.086,10.07 v 22.27 c 0,7.96 -1.562,13.64 -4.652,16.9 -3.086,3.27 -8.36,4.93 -15.676,4.93 -13.754,0 -21.668,-4.98 -23.535,-14.81 l -0.078,-0.4 8.312,-1.43 0.078,0.38 c 1.317,6.14 5.907,9.13 14.032,9.13 3.304,0 6,-0.55 8.011,-1.62 1.969,-1.05 3.278,-2.47 3.879,-4.2 0.602,-1.74 0.914,-4.59 0.934,-8.46 -2.903,0.12 -5.106,0.19 -6.547,0.19 -10.832,0 -18.629,-1.75 -23.18,-5.2" /><path
         id="path50"
         style="fill:#172258;fill-opacity:1;fill-rule:nonzero;stroke:none"
         d="m 816.93,1054.51 c 0.203,5.35 1.777,9.72 4.675,12.98 2.875,3.25 6.547,4.9 10.907,4.9 h 2.058 v 8.55 l -0.355,0.04 c -1.356,0.14 -2.418,0.2 -3.262,0.2 -2.73,0 -5.43,-0.88 -8.031,-2.63 -2.34,-1.57 -4.68,-4.84 -6.981,-9.71 v 10.79 h -7.957 v -53.22 h 8.946 v 28.1" /><path
         id="path52"
         style="fill:#172258;fill-opacity:1;fill-rule:nonzero;stroke:none"
         d="m 846.023,1041.26 c 0,-10.81 5.254,-16.3 15.61,-16.3 2.121,0 4.656,0.2 7.523,0.58 l 0.352,0.04 v 7.26 l -0.465,-0.07 c -2.32,-0.38 -4.426,-0.57 -6.27,-0.57 -5.39,0 -8.007,2.52 -8.007,7.71 v 32.53 h 11.726 v 7.19 h -11.726 v 13.94 l -8.371,-0.8 -0.36,-13.14 h -9.297 v -7.19 h 9.285 v -31.18" /><path
         id="path54"
         style="fill:#172258;fill-opacity:1;fill-rule:nonzero;stroke:none"
         d="m 884.617,1058.16 c 0,4.45 1.262,8.16 3.746,11.05 2.465,2.86 5.403,4.32 8.723,4.32 2.309,0 4.551,-0.93 6.664,-2.76 2.094,-1.81 3.152,-4.99 3.152,-9.45 v -34.91 h 8.696 v 29.93 c 0,5.71 1.418,10.01 4.211,12.77 2.796,2.75 5.726,4.16 8.722,4.16 2.149,0 4.106,-0.68 5.821,-2.02 1.722,-1.34 2.82,-2.82 3.261,-4.4 0.457,-1.65 0.688,-4.15 0.688,-7.45 v -32.99 h 8.742 v 32.99 c 0,4.84 -0.418,8.64 -1.238,11.3 -0.828,2.72 -2.641,5.15 -5.379,7.23 -2.738,2.09 -5.977,3.15 -9.61,3.15 -7.257,0 -12.789,-3.95 -16.453,-11.74 -0.871,3.05 -2.527,5.72 -4.91,7.95 -2.695,2.52 -6.019,3.79 -9.879,3.79 -6.543,0 -11.832,-3.47 -15.73,-10.33 v 8.88 h -7.809 v -53.22 h 8.582 v 31.75" /><path
         id="path56"
         style="fill:#172258;fill-opacity:1;fill-rule:nonzero;stroke:none"
         d="m 967.125,1058.77 c 0.395,4.59 1.938,8.3 4.598,11.04 2.73,2.81 6.093,4.24 10.011,4.24 2.907,0 5.43,-0.79 7.496,-2.33 2.071,-1.56 3.559,-3.47 4.426,-5.67 0.84,-2.12 1.317,-4.57 1.41,-7.28 z m 14.141,-33.81 c 5.496,0 10.343,1.51 14.402,4.48 4.066,2.97 6.842,6.78 8.242,11.32 l 0.13,0.42 -8.005,1.64 -0.332,0.08 -0.129,-0.32 c -2.687,-6.78 -7.179,-10.07 -13.738,-10.07 -3.582,0 -7.039,1.37 -10.273,4.06 -3.157,2.63 -4.782,7.78 -4.833,15.32 h 38.09 l -0.01,0.41 c -0.1,9.5 -2.3,16.75 -6.509,21.54 -4.231,4.8 -9.887,7.24 -16.824,7.24 -7.043,0 -12.969,-2.64 -17.633,-7.85 -4.649,-5.19 -7.004,-12.09 -7.004,-20.49 0,-8.24 2.265,-14.99 6.738,-20.08 4.488,-5.11 10.442,-7.7 17.688,-7.7" /><path
         id="path58"
         style="fill:#172258;fill-opacity:1;fill-rule:nonzero;stroke:none"
         d="m 1023.61,1055.57 c 0,5.3 1.39,9.63 4.13,12.86 2.72,3.21 6.14,4.84 10.15,4.84 2.89,0 5.39,-0.96 7.41,-2.85 2.01,-1.88 3.03,-5.22 3.03,-9.93 v -34.08 h 8.43 v 30.71 c 0,6.62 -0.52,11.29 -1.55,13.85 -1.05,2.58 -3,4.94 -5.79,7 -2.82,2.06 -6.26,3.11 -10.23,3.11 -6.51,0 -11.94,-3.38 -16.15,-10.06 v 8.61 h -8.38 v -53.22 h 8.95 v 29.16" /><path
         id="path60"
         style="fill:#172258;fill-opacity:1;fill-rule:nonzero;stroke:none"
         d="m 1071.76,1041.26 c 0,-10.81 5.25,-16.3 15.6,-16.3 2.12,0 4.66,0.2 7.52,0.58 l 0.35,0.04 v 7.26 l -0.46,-0.07 c -2.32,-0.38 -4.42,-0.57 -6.27,-0.57 -5.38,0 -8.01,2.52 -8.01,7.71 v 32.53 h 11.73 v 7.19 h -11.73 v 13.94 l -8.37,-0.8 -0.36,-13.14 h -9.29 v -7.19 h 9.29 v -31.18" /><path
         id="path62"
         style="fill:#172258;fill-opacity:1;fill-rule:nonzero;stroke:none"
         d="m 1127.87,1026.41 h 8.95 v 46.03 h 12.46 v 7.19 h -12.46 v 1.72 c 0,4.19 0.82,7.07 2.44,8.56 1.63,1.49 4.2,2.25 7.64,2.25 1.55,0 3.21,-0.22 4.94,-0.66 l 0.49,-0.13 v 7.34 l -0.33,0.06 c -2.82,0.49 -5.35,0.73 -7.54,0.73 -4.53,0 -8.42,-1.25 -11.59,-3.71 -3.12,-2.46 -4.81,-7.89 -4.99,-16.16 h -8.93 v -7.19 h 8.92 v -46.03" /><path
         id="path64"
         style="fill:#172258;fill-opacity:1;fill-rule:nonzero;stroke:none"
         d="m 1174.26,1073.53 c 3.81,0 7.19,-1.6 10.03,-4.77 2.86,-3.18 4.3,-8.4 4.3,-15.53 0,-7.1 -1.37,-12.39 -4.11,-15.73 -2.7,-3.31 -6.11,-4.99 -10.11,-4.99 -3.98,0 -7.37,1.6 -10.07,4.77 -2.73,3.17 -4.11,8.56 -4.11,16 0,7.02 1.38,12.22 4.11,15.43 2.7,3.2 6.06,4.82 9.96,4.82 z m -17.68,-40.41 c 4.09,-5.42 9.87,-8.16 17.16,-8.16 7.22,0 13.18,2.66 17.74,7.9 4.55,5.23 6.84,12.05 6.84,20.29 0,7.92 -2.13,14.61 -6.34,19.91 -4.23,5.32 -10.09,8.02 -17.41,8.02 -6.83,0 -12.62,-2.56 -17.21,-7.61 -4.59,-5.04 -6.9,-11.86 -6.9,-20.27 0,-7.95 2.06,-14.7 6.12,-20.08" /><path
         id="path66"
         style="fill:#172258;fill-opacity:1;fill-rule:nonzero;stroke:none"
         d="m 1217.13,1054.51 c 0.2,5.35 1.78,9.72 4.67,12.98 2.88,3.25 6.55,4.9 10.91,4.9 h 2.06 v 8.55 l -0.36,0.04 c -1.35,0.14 -2.42,0.2 -3.26,0.2 -2.73,0 -5.43,-0.88 -8.03,-2.63 -2.34,-1.57 -4.68,-4.84 -6.98,-9.71 v 10.79 h -7.97 v -53.22 h 8.96 v 28.1" /><path
         id="path68"
         style="fill:#172258;fill-opacity:1;fill-rule:nonzero;stroke:none"
         d="m 643.598,766.301 h -25.871 v 192.64 h 25.871 v 9.051 h -87.922 v -9.051 h 25.879 v -192.64 h -25.879 v -9.047 h 87.922 v 9.047" /><path
         id="path70"
         style="fill:#172258;fill-opacity:1;fill-rule:nonzero;stroke:none"
         d="m 783.871,834.102 c 0,23.652 -1.699,30.941 -9.098,38.984 -6.777,7.426 -20.023,12.609 -32.21,12.609 -16.594,0 -28.321,-5.058 -38.493,-16.781 v 13.66 h -51.761 v -9.047 h 20.89 V 766.301 h -20.89 v -9.047 h 70.464 v 9.047 H 704.07 v 35.687 c 0,37.219 1.766,51.164 7.539,59.668 4.629,6.657 13.844,11.871 20.981,11.871 6.086,0 10.961,-2.23 14.48,-6.64 4.766,-5.949 5.934,-16.547 5.934,-53.985 v -46.601 h -19.016 v -9.047 h 70.461 v 9.047 h -20.578 v 67.801" /><path
         id="path72"
         style="fill:#172258;fill-opacity:1;fill-rule:nonzero;stroke:none"
         d="m 891.875,933.383 c 7.266,0 13.879,7.355 13.879,15.433 0,12.293 -12.938,22.293 -28.844,22.293 -12.574,0 -24.902,-6.203 -33.824,-17.035 -10.023,-12.293 -13.406,-24.316 -13.406,-47.648 v -23.852 h -20.887 v -9.047 H 829.68 V 766.301 h -20.887 v -9.047 h 77.32 v 9.047 h -25.562 v 107.226 h 28.367 v 9.047 h -28.367 v 56.274 c 0,5.945 0.941,11.836 2.359,14.672 2.574,5.429 7.332,8.543 13.067,8.543 2.543,0 4.628,-0.375 6.441,-1.161 -3.348,-3.847 -5.047,-8.121 -5.047,-12.711 0,-8.441 6.238,-14.808 14.504,-14.808" /><path
         id="path74"
         style="fill:#172258;fill-opacity:1;fill-rule:nonzero;stroke:none"
         d="m 895.449,882.574 v -9.047 H 916.34 V 766.301 h -20.891 v -9.047 h 72.332 v 9.047 h -20.574 v 27.586 c 0,36.078 3.102,53.519 12.27,69.105 2.945,4.903 5.988,7.11 7.207,7.11 0.41,0 1.375,0 1.711,-3.036 0.664,-12.222 5.613,-18.164 15.125,-18.164 10.003,0 16.99,7.118 16.99,17.309 0,11.293 -8.713,19.484 -20.729,19.484 -13.66,0 -24.105,-8.672 -32.574,-27.164 v 24.043 h -51.758" /><path
         id="path76"
         style="fill:#172258;fill-opacity:1;fill-rule:nonzero;stroke:none"
         d="m 1077.15,819.535 v -4.762 c 0,-15.57 -1.26,-24.605 -4.2,-30.195 -4.71,-8.844 -12.44,-13.91 -21.2,-13.91 -11.19,0 -17.61,6.875 -17.61,18.852 0,19.281 13.28,28.574 43.01,30.015 z m -50.34,18.457 c 8.54,0 14.5,6.086 14.5,14.813 0,4.129 -1.72,7 -4.67,10.543 -1.19,1.488 -1.25,1.8 -1.25,2.547 0,4.828 11.36,11.691 21.97,11.691 6.76,0 12.66,-2.047 15.8,-5.481 3.29,-3.558 3.99,-6.042 3.99,-24.289 v -20.132 c -47.46,-1.211 -73.57,-16.289 -73.57,-42.524 0,-18.558 13.84,-31.027 34.45,-31.027 16.1,0 30.39,7.89 39.73,21.793 2.9,-14.098 12.26,-21.793 26.67,-21.793 8.87,0 15.04,2.637 22.78,9.722 l 0.96,0.887 -5.46,6.828 -1.1,-0.918 c -5.59,-4.66 -5.89,-4.66 -8.14,-4.66 -5.14,0 -5.45,0 -5.45,27.27 v 41.773 c 0,27.168 -0.18,29.414 -7.54,37.117 -7.71,8.36 -22.2,13.543 -37.82,13.543 -26.83,0 -50.35,-15.367 -50.35,-32.89 0,-8.309 6.37,-14.813 14.5,-14.813" /><path
         id="path78"
         style="fill:#172258;fill-opacity:1;fill-rule:nonzero;stroke:none"
         d="m 1136.38,846.258 c 0,-24.844 11.39,-35.567 43.58,-40.981 23.76,-3.683 28.12,-9.14 28.12,-18.558 0,-12.883 -11.6,-22.602 -26.97,-22.602 -19.89,0 -31.15,12.071 -38.84,41.656 l -0.28,1.055 h -6.89 l 0.99,-49.574 h 5.51 l 7.03,9.371 c 11.43,-9.082 20.35,-12.492 32.48,-12.492 23.94,0 41.31,18.555 41.31,44.117 0,23.727 -12.53,35.598 -43.24,40.977 -24.95,4.543 -29.39,8.238 -29.39,16.386 0,11.27 11.29,20.098 25.71,20.098 17.25,0 31.17,-12.195 33.84,-29.664 l 0.17,-1.195 h 7.34 l -1.01,39.597 h -6.93 l -4.61,-9.515 c -10.26,7.847 -18.88,11.074 -29.42,11.074 -21.95,0 -38.5,-17.09 -38.5,-39.75" /><path
         id="path80"
         style="fill:#172258;fill-opacity:1;fill-rule:nonzero;stroke:none"
         d="m 1227.71,880.148 v -6.621 h 19.02 v -77.461 c 0,-19.14 0.49,-23.121 6.54,-30.175 6.1,-7.696 15.64,-11.758 27.6,-11.758 19.41,0 31.22,9.578 34.13,27.687 l 0.26,1.629 h -9.06 l -0.21,-1.144 c -2.03,-10.7 -6.74,-15.688 -14.83,-15.688 -9.19,0 -13.55,2.961 -13.55,19.785 v 87.125 h 31.17 v 9.047 h -31.17 v 47.703 h -7.37 l -0.35,-0.902 c -9.22,-23.969 -21.22,-38.113 -41.42,-48.824 l -0.76,-0.403" /><path
         id="path82"
         style="fill:#172258;fill-opacity:1;fill-rule:nonzero;stroke:none"
         d="m 1333.7,766.301 h -20.89 v -9.047 h 72.34 v 9.047 h -20.58 v 27.586 c 0,36.078 3.11,53.519 12.27,69.105 2.95,4.903 5.99,7.11 7.2,7.11 0.42,0 1.38,0 1.72,-3.036 0.67,-12.222 5.61,-18.164 15.12,-18.164 10.01,0 17,7.118 17,17.309 0,11.293 -8.72,19.484 -20.74,19.484 -13.65,0 -24.1,-8.672 -32.57,-27.164 v 24.043 h -51.76 v -9.047 h 20.89 V 766.301" /><path
         id="path84"
         style="fill:#172258;fill-opacity:1;fill-rule:nonzero;stroke:none"
         d="m 1443.44,808.539 c 0,-26.578 1.88,-34.574 10.1,-42.789 7.81,-7.488 19.89,-11.617 34.01,-11.617 16.74,0 30.06,5.93 38.81,17.199 v -14.078 h 51.44 v 9.047 h -20.57 v 116.273 h -51.76 v -9.047 h 20.89 v -42.23 c 0,-33.207 -1.31,-43.043 -6.98,-52.586 -5.4,-9 -15.56,-14.594 -26.53,-14.594 -6.07,0 -11.4,1.735 -13.97,4.582 -3.93,3.93 -4.57,9.524 -4.57,39.84 v 74.035 h -51.76 v -9.047 h 20.89 v -64.988" /><path
         id="path86"
         style="fill:#172258;fill-opacity:1;fill-rule:nonzero;stroke:none"
         d="m 1646.53,754.133 c 24.92,0 41.67,13.863 52.76,43.629 l 0.71,1.898 h -10.84 l -0.32,-0.965 c -7.54,-22.617 -21.42,-34.578 -40.13,-34.578 -8.74,0 -16.1,3.039 -20.72,8.524 -5.02,6.199 -6.55,15.097 -6.55,38.082 0,55.957 8.59,64.988 29.15,64.988 9.97,0 20.09,-4.801 20.09,-8.25 0,-0.359 0,-0.359 -0.93,-1.305 -4.11,-5.129 -6.55,-10.699 -6.55,-14.906 0,-9.824 6.35,-16.687 15.43,-16.687 9.77,0 16.07,7.039 16.07,17.929 0,17.379 -21.03,33.203 -44.11,33.203 -35.85,0 -65,-29.855 -65,-66.554 0,-34.629 28.47,-65.008 60.94,-65.008" /><path
         id="path88"
         style="fill:#172258;fill-opacity:1;fill-rule:nonzero;stroke:none"
         d="m 1916.64,882.574 h -51.76 v -9.047 h 20.89 v -42.23 c 0,-33.207 -1.31,-43.043 -6.97,-52.586 -5.4,-9 -15.57,-14.594 -26.53,-14.594 -6.08,0 -11.41,1.735 -13.98,4.582 -3.92,3.93 -4.57,9.524 -4.57,39.84 v 74.035 h -51.74 -0.02 -31.15 v 47.703 h -7.36 l -0.35,-0.902 c -9.22,-23.969 -21.22,-38.113 -41.43,-48.824 l -0.75,-0.403 v -6.621 h 19.01 v -77.461 c 0,-19.14 0.49,-23.121 6.54,-30.175 6.1,-7.696 15.64,-11.758 27.6,-11.758 19.43,0 31.22,9.578 34.13,27.687 l 0.27,1.629 h -9.07 l -0.21,-1.144 c -2.02,-10.7 -6.74,-15.688 -14.82,-15.688 -9.18,0 -13.56,2.961 -13.56,19.785 v 87.125 h 31.15 0.02 20.87 v -64.988 c 0,-26.578 1.89,-34.574 10.1,-42.789 7.81,-7.488 19.89,-11.617 34.01,-11.617 16.74,0 30.06,5.93 38.81,17.199 v -14.078 h 51.45 v 9.047 h -20.58 v 116.273" /><path
         id="path90"
         style="fill:#172258;fill-opacity:1;fill-rule:nonzero;stroke:none"
         d="m 2027.77,885.695 c -13.65,0 -24.11,-8.672 -32.56,-27.164 v 24.043 h -51.77 v -9.047 h 20.89 V 766.301 h -20.89 v -9.047 h 72.33 v 9.047 h -20.56 v 27.586 c 0,36.078 3.09,53.519 12.26,69.105 2.94,4.903 5.99,7.11 7.21,7.11 0.41,0 1.36,0 1.71,-3.036 0.66,-12.222 5.61,-18.164 15.12,-18.164 10,0 17,7.118 17,17.309 0,11.293 -8.72,19.484 -20.74,19.484" /><path
         id="path92"
         style="fill:#172258;fill-opacity:1;fill-rule:nonzero;stroke:none"
         d="m 2085.58,837.688 v 5.761 c 0,23.516 6.55,32.262 24.16,32.262 9.6,0 16.32,-3.988 18.94,-11.262 2.02,-5.183 2.38,-7.543 2.39,-26.761 z m 68.3,-37.536 c -5.72,-22.554 -20.82,-36.035 -40.4,-36.035 -10.51,0 -18.93,4.621 -23.72,13.012 -3.6,6.289 -4.18,12.351 -4.18,43.254 v 8.258 h 80.84 l -0.1,1.504 c -2.23,33.746 -24.2,55.55 -55.97,55.55 -31.96,0 -60.01,-30.808 -60.01,-65.937 0,-34.344 28.91,-65.625 60.64,-65.625 26.67,0 48.02,18.25 53.13,45.418 l 0.31,1.668 h -10.27 l -0.27,-1.067" /><path
         id="path94"
         style="fill:#172258;fill-opacity:1;fill-rule:nonzero;stroke:none"
         d="m 623.285,34.7383 -11.5,38.2422 h -6.558 l -10.598,-38.0117 -11.024,37.7226 -0.085,0.2891 h -9.016 l 15.988,-53.2188 h 7.305 l 10.449,37.8672 11.387,-37.8672 h 7.203 l 15.176,52.7071 0.152,0.5117 h -7.402 L 623.285,34.7383" /><path
         id="path96"
         style="fill:#172258;fill-opacity:1;fill-rule:nonzero;stroke:none"
         d="m 692.258,34.7383 -11.5,38.2422 h -6.559 L 663.605,34.9688 652.582,72.6914 652.5,72.9805 h -9.02 l 15.993,-53.2188 h 7.3 l 10.454,37.8672 11.386,-37.8672 h 7.203 l 15.168,52.7071 0.149,0.5117 H 703.73 L 692.258,34.7383" /><path
         id="path98"
         style="fill:#172258;fill-opacity:1;fill-rule:nonzero;stroke:none"
         d="m 761.23,34.7383 -11.5,38.2422 h -6.562 l -10.594,-38.0117 -11.015,37.7226 -0.082,0.2891 h -9.02 l 15.988,-53.2188 h 7.301 l 10.449,37.8672 11.395,-37.8672 h 7.199 l 15.168,52.7071 0.148,0.5117 h -7.402 L 761.23,34.7383" /><path
         id="path100"
         style="fill:#172258;fill-opacity:1;fill-rule:nonzero;stroke:none"
         d="m 783.391,19.7617 h 12.425 V 32.1992 H 783.391 V 19.7617" /><path
         id="path102"
         style="fill:#172258;fill-opacity:1;fill-rule:nonzero;stroke:none"
         d="m 808.617,81.5117 h 9.574 v 9.8789 h -9.574 v -9.8789" /><path
         id="path104"
         style="fill:#172258;fill-opacity:1;fill-rule:nonzero;stroke:none"
         d="m 808.988,19.7617 h 8.942 v 53.2188 h -8.942 V 19.7617" /><path
         id="path106"
         style="fill:#172258;fill-opacity:1;fill-rule:nonzero;stroke:none"
         d="m 866.539,71.3281 c -2.816,2.0625 -6.262,3.1016 -10.23,3.1016 -6.508,0 -11.946,-3.3789 -16.157,-10.0586 v 8.6094 h -8.375 V 19.7617 h 8.95 v 29.1485 c 0,5.3203 1.39,9.6406 4.128,12.8789 2.727,3.2109 6.145,4.832 10.157,4.832 2.894,0 5.383,-0.9609 7.398,-2.8516 2.02,-1.8906 3.043,-5.2304 3.043,-9.9179 V 19.7617 h 8.426 v 30.7071 c 0,6.6328 -0.524,11.2929 -1.555,13.8515 -1.047,2.5781 -2.992,4.9414 -5.785,7.0078" /><path
         id="path108"
         style="fill:#172258;fill-opacity:1;fill-rule:nonzero;stroke:none"
         d="m 905.512,92.8516 c -4.532,0 -8.434,-1.25 -11.586,-3.711 -3.133,-2.4609 -4.817,-7.8906 -4.988,-16.1601 H 880 v -7.1914 h 8.926 V 19.7617 h 8.945 v 46.0274 h 12.457 v 7.1914 h -12.457 v 1.7304 c 0,4.1797 0.82,7.0704 2.442,8.5508 1.628,1.4883 4.199,2.2578 7.64,2.2578 1.555,0 3.215,-0.2304 4.934,-0.6679 l 0.504,-0.1328 v 7.3515 l -0.34,0.0586 c -2.813,0.4805 -5.352,0.7227 -7.539,0.7227" /><path
         id="path110"
         style="fill:#172258;fill-opacity:1;fill-rule:nonzero;stroke:none"
         d="m 941.02,74.5391 c -2.727,0 -5.43,-0.8907 -8.036,-2.6407 -2.332,-1.5703 -4.671,-4.8281 -6.972,-9.6992 v 10.7813 h -7.961 V 19.7617 h 8.941 v 28.0977 c 0.211,5.3515 1.781,9.7187 4.68,12.9804 2.879,3.25 6.547,4.8985 10.906,4.8985 h 2.063 v 8.5508 l -0.364,0.0312 c -1.351,0.1485 -2.418,0.2188 -3.257,0.2188" /><path
         id="path112"
         style="fill:#172258;fill-opacity:1;fill-rule:nonzero;stroke:none"
         d="m 967.188,25.3984 c -3.512,0 -6.219,0.8829 -8.055,2.6016 -1.824,1.7109 -2.75,3.8086 -2.75,6.2617 0,3.9375 1.68,6.8477 5.14,8.9102 3.493,2.0586 8.461,3.1172 14.793,3.1172 1.672,0 4.098,-0.1094 7.204,-0.3008 0.089,-1.1992 0.132,-2.1875 0.132,-3.0469 0,-4.7031 -1.566,-8.8398 -4.652,-12.3203 -3.07,-3.4609 -7.043,-5.2227 -11.812,-5.2227 z m 24.996,4.9414 v 22.2618 c 0,7.9492 -1.563,13.6484 -4.657,16.9101 -3.086,3.2696 -8.355,4.918 -15.675,4.918 -13.75,0 -21.672,-4.9805 -23.536,-14.8008 l -0.078,-0.3984 8.317,-1.4414 0.078,0.3828 c 1.312,6.1367 5.902,9.1289 14.031,9.1289 3.305,0 5.996,-0.5391 8.008,-1.6094 1.969,-1.0508 3.277,-2.4726 3.883,-4.2226 0.597,-1.75 0.914,-4.5899 0.929,-8.4493 -2.902,0.1211 -5.105,0.1914 -6.546,0.1914 -10.829,0 -18.625,-1.75 -23.176,-5.1914 -4.582,-3.4882 -6.907,-7.9882 -6.907,-13.3984 0,-4.4727 1.625,-8.332 4.844,-11.5195 3.207,-3.1719 7.864,-4.7813 13.828,-4.7813 8.258,0 14.328,3.3086 18.063,9.8594 0.289,-3.9492 0.566,-6.6094 0.844,-8.0781 l 0.062,-0.3399 h 8.879 l -0.113,0.5 c -0.719,3.0391 -1.078,6.4297 -1.078,10.0781" /><path
         id="path114"
         style="fill:#172258;fill-opacity:1;fill-rule:nonzero;stroke:none"
         d="m 1028.34,50.7695 -10.21,1.8321 c -5.26,0.9687 -7.82,3.2304 -7.82,6.9101 0,2.3281 0.98,4.0899 3.01,5.3867 2.04,1.3204 4.72,1.9805 7.95,1.9805 6.55,0 10.76,-2.5898 12.86,-7.9375 l 0.12,-0.3203 8.24,1.7695 -0.13,0.418 c -2.71,9.043 -9.93,13.6211 -21.45,13.6211 -5.99,0 -10.83,-1.5195 -14.38,-4.5313 -3.57,-3.0195 -5.38,-6.8398 -5.38,-11.3281 0,-4.082 1.34,-7.4101 3.97,-9.8906 2.59,-2.4688 6.13,-4.1406 10.52,-4.9805 l 11.04,-2.1094 c 5.83,-1.0585 8.66,-3.5 8.66,-7.4179 0,-2.6524 -1.09,-4.6406 -3.34,-6.0899 -2.27,-1.4726 -5.1,-2.2109 -8.39,-2.2109 -9.08,0 -14.32,3.1406 -16.01,9.6094 l -0.1,0.3711 -8.59,-1.7813 0.121,-0.4219 c 2.989,-10.1796 10.869,-15.3281 23.429,-15.3281 6.67,0 12.09,1.5195 16.12,4.5195 4.07,3.0313 6.13,7.0586 6.13,11.9883 0,8.6133 -5.51,13.9727 -16.37,15.9414" /><path
         id="path116"
         style="fill:#172258;fill-opacity:1;fill-rule:nonzero;stroke:none"
         d="m 1071.62,25.5508 c -5.39,0 -8.01,2.5195 -8.01,7.7109 v 32.5274 h 11.73 v 7.1914 h -11.73 v 13.9492 l -8.37,-0.8086 -0.36,-13.1406 h -9.3 v -7.1914 h 9.29 V 34.6094 c 0,-10.8086 5.25,-16.2891 15.61,-16.2891 2.12,0 4.66,0.1914 7.52,0.5586 l 0.35,0.0508 v 7.2617 l -0.46,-0.0703 c -2.31,-0.3711 -4.42,-0.5703 -6.27,-0.5703" /><path
         id="path118"
         style="fill:#172258;fill-opacity:1;fill-rule:nonzero;stroke:none"
         d="m 1107.84,74.5391 c -2.72,0 -5.42,-0.8907 -8.03,-2.6407 -2.33,-1.5703 -4.67,-4.8281 -6.97,-9.6992 v 10.7813 h -7.96 V 19.7617 h 8.94 v 28.0977 c 0.21,5.3515 1.79,9.7187 4.68,12.9804 2.88,3.25 6.55,4.8985 10.9,4.8985 h 2.06 v 8.5508 l -0.36,0.0312 c -1.34,0.1485 -2.41,0.2188 -3.26,0.2188" /><path
         id="path120"
         style="fill:#172258;fill-opacity:1;fill-rule:nonzero;stroke:none"
         d="m 1151.42,43.0508 c 0,-3.1719 -0.71,-6.1406 -2.08,-8.8125 -1.4,-2.6875 -3.15,-4.7774 -5.21,-6.207 -2.04,-1.4415 -4.36,-2.1602 -6.89,-2.1602 -2.48,0 -4.8,0.9375 -6.87,2.8203 -2.07,1.8594 -3.11,5.3672 -3.11,10.418 v 33.8711 h -8.95 V 39.0781 c 0,-6.5781 1.57,-11.7383 4.68,-15.3281 3.12,-3.6094 7.47,-5.4297 12.92,-5.4297 7.04,0 12.51,3.4414 16.28,10.2188 v -8.7774 h 8.17 v 53.2188 h -8.94 V 43.0508" /><path
         id="path122"
         style="fill:#172258;fill-opacity:1;fill-rule:nonzero;stroke:none"
         d="m 1205.24,38.6211 c -1.76,-8.582 -5.82,-12.75 -12.39,-12.75 -4.24,0 -7.44,1.75 -9.79,5.3906 -2.35,3.6289 -3.54,8.8164 -3.54,15.4297 0,5.9805 1.2,10.918 3.58,14.6484 2.32,3.6797 5.69,5.5391 10.01,5.5391 6.8,0 10.77,-4.1289 12.13,-12.6289 l 0.07,-0.3984 8.16,1.539 -0.06,0.3907 c -0.85,5.457 -3.05,9.9804 -6.53,13.4296 -3.51,3.461 -8.23,5.2188 -14.01,5.2188 -6.98,0 -12.58,-2.7109 -16.64,-8.0703 -4.03,-5.3399 -6.07,-12.0977 -6.07,-20.1211 0,-7.7383 1.93,-14.3867 5.76,-19.7578 3.84,-5.4219 9.51,-8.1602 16.85,-8.1602 5.4,0 9.98,1.6914 13.61,5.0195 3.61,3.3204 5.97,7.9805 7.03,13.8321 l 0.07,0.3984 -8.16,1.4297 -0.08,-0.3789" /><path
         id="path124"
         style="fill:#172258;fill-opacity:1;fill-rule:nonzero;stroke:none"
         d="m 1240,25.5508 c -5.38,0 -8.01,2.5195 -8.01,7.7109 v 32.5274 h 11.73 v 7.1914 h -11.73 v 13.9492 l -8.37,-0.8086 -0.36,-13.1406 h -9.3 v -7.1914 h 9.29 V 34.6094 c 0,-10.8086 5.26,-16.2891 15.61,-16.2891 2.13,0 4.66,0.1914 7.53,0.5586 l 0.35,0.0508 v 7.2617 l -0.47,-0.0703 c -2.31,-0.3711 -4.42,-0.5703 -6.27,-0.5703" /><path
         id="path126"
         style="fill:#172258;fill-opacity:1;fill-rule:nonzero;stroke:none"
         d="m 1286.36,43.0508 c 0,-3.1719 -0.7,-6.1406 -2.08,-8.8125 -1.38,-2.6797 -3.12,-4.7695 -5.19,-6.207 -2.05,-1.4415 -4.37,-2.1602 -6.9,-2.1602 -2.48,0 -4.8,0.9375 -6.87,2.8203 -2.07,1.8594 -3.11,5.3672 -3.11,10.418 v 33.8711 h -8.95 V 39.0781 c 0,-6.5781 1.57,-11.7383 4.68,-15.3281 3.12,-3.6094 7.47,-5.4297 12.92,-5.4297 7.03,0 12.51,3.4414 16.28,10.2188 v -8.7774 h 8.17 v 53.2188 h -8.95 V 43.0508" /><path
         id="path128"
         style="fill:#172258;fill-opacity:1;fill-rule:nonzero;stroke:none"
         d="m 1332.19,74.5391 c -2.73,0 -5.43,-0.8907 -8.04,-2.6407 -2.33,-1.5703 -4.67,-4.8281 -6.97,-9.6992 v 10.7813 h -7.96 V 19.7617 h 8.94 v 28.0977 c 0.21,5.3515 1.78,9.7187 4.68,12.9804 2.87,3.25 6.54,4.8985 10.9,4.8985 h 2.06 v 8.5508 l -0.35,0.0312 c -1.36,0.1485 -2.42,0.2188 -3.26,0.2188" /><path
         id="path130"
         style="fill:#172258;fill-opacity:1;fill-rule:nonzero;stroke:none"
         d="m 1348.83,52.1211 c 0.39,4.5977 1.94,8.3086 4.6,11.0391 2.72,2.8086 6.09,4.2382 10.01,4.2382 2.9,0 5.43,-0.7773 7.49,-2.3281 2.07,-1.5508 3.55,-3.4609 4.43,-5.6719 0.84,-2.1289 1.31,-4.5781 1.41,-7.2773 z m 37.68,-6.4727 c -0.1,9.4922 -2.29,16.7422 -6.51,21.543 -4.23,4.7969 -9.88,7.2383 -16.83,7.2383 -7.03,0 -12.96,-2.6406 -17.62,-7.8399 -4.65,-5.2109 -7.01,-12.1015 -7.01,-20.5 0,-8.2304 2.27,-14.9882 6.74,-20.0898 4.5,-5.0898 10.44,-7.6797 17.69,-7.6797 5.5,0 10.34,1.5 14.4,4.4688 4.07,2.9726 6.84,6.7812 8.25,11.332 l 0.12,0.418 -8.01,1.6406 -0.32,0.0703 -0.12,-0.3086 c -2.7,-6.7812 -7.2,-10.0703 -13.75,-10.0703 -3.59,0 -7.05,1.3477 -10.28,4.0508 -3.15,2.6289 -4.77,7.7773 -4.83,15.3164 h 38.09 l -0.01,0.4101" /><path
         id="path132"
         style="fill:#172258;fill-opacity:1;fill-rule:nonzero;stroke:none"
         d="m 1389.78,43.1719 h 24.25 v 7.1289 h -24.25 v -7.1289" /><path
         id="path134"
         style="fill:#172258;fill-opacity:1;fill-rule:nonzero;stroke:none"
         d="m 1456.09,71.3281 c -2.81,2.0625 -6.26,3.1016 -10.22,3.1016 -6.5,0 -11.93,-3.3789 -16.15,-10.0586 v 8.6094 h -8.38 V 19.7617 h 8.94 v 29.1485 c 0,5.3203 1.4,9.6406 4.14,12.8789 2.72,3.2109 6.14,4.832 10.15,4.832 2.93,0 5.35,-0.9297 7.4,-2.8516 2.02,-1.8789 3.04,-5.2187 3.04,-9.9179 V 19.7617 h 8.44 v 30.7071 c 0,6.6328 -0.53,11.3007 -1.57,13.8515 -1.04,2.5899 -2.99,4.9492 -5.79,7.0078" /><path
         id="path136"
         style="fill:#172258;fill-opacity:1;fill-rule:nonzero;stroke:none"
         d="m 1476.97,81.5117 h 9.57 v 9.8789 h -9.57 v -9.8789" /><path
         id="path138"
         style="fill:#172258;fill-opacity:1;fill-rule:nonzero;stroke:none"
         d="m 1477.34,19.7617 h 8.95 v 53.2188 h -8.95 V 19.7617" /><path
         id="path140"
         style="fill:#172258;fill-opacity:1;fill-rule:nonzero;stroke:none"
         d="m 1499.51,19.7617 h 12.42 v 12.4375 h -12.42 V 19.7617" /><path
         id="path142"
         style="fill:#172258;fill-opacity:1;fill-rule:nonzero;stroke:none"
         d="m 1551.58,47.9297 c -2.08,-2.0391 -4.83,-3.0781 -8.16,-3.0781 -3.38,0 -6.13,1.0273 -8.19,3.0273 -2.06,2 -3.09,4.6719 -3.09,7.9414 0,3.6602 1.15,6.5195 3.44,8.4805 2.3,2 4.98,3 7.94,3 3.09,0 5.76,-1.0703 7.94,-3.1797 2.16,-2.1094 3.28,-4.8711 3.28,-8.1914 0,-3.2813 -1.07,-5.9609 -3.16,-8 z m 5.24,-38.98048 c -3.68,-1.23828 -7.79,-1.86719 -12.22,-1.86719 -4.76,0 -8.72,0.72656 -11.78,2.16797 -3.01,1.4102 -4.47,3.3203 -4.47,5.8398 0,2.9688 1.76,5.1915 5.36,6.7891 2.75,-0.3398 6.99,-0.5781 12.6,-0.707 4.72,-0.1406 8.07,-0.3516 9.99,-0.6211 1.83,-0.2695 3.28,-0.8906 4.33,-1.8711 1.01,-0.9609 1.53,-2.1992 1.53,-3.6992 0,-2.8399 -1.75,-4.8203 -5.34,-6.03128 z m 3.46,19.16018 c -2.88,0.6523 -7.36,1.0625 -13.33,1.2304 -6.99,0.1719 -11.47,0.5704 -13.33,1.1797 -1.73,0.5586 -2.58,1.7618 -2.58,3.6602 0,1.332 0.6,2.3789 1.81,3.2187 1.23,0.8711 2.3,1.3125 3.14,1.3125 0.45,0 1.59,-0.1914 3.49,-0.5703 1.03,-0.1992 2.26,-0.3125 3.67,-0.3125 6.23,0 11.28,1.7617 14.98,5.2422 3.73,3.4883 5.61,7.7305 5.61,12.5899 0,4.5781 -1.69,8.8789 -5,12.7812 0.4,2.0274 1.18,3.4492 2.3,4.2188 1.2,0.8086 3.64,1.2304 7.28,1.2304 h 0.4 v 7.2578 l -0.38,0.0313 c -0.92,0.0703 -1.63,0.1016 -2.04,0.1016 -3.91,0 -6.88,-0.6915 -8.82,-2.043 -1.87,-1.2969 -3.11,-3.6094 -3.69,-6.8594 -3.14,1.3711 -6.64,2.0508 -10.43,2.0508 -5.65,0 -10.5,-1.7109 -14.43,-5.0703 -3.95,-3.3906 -5.95,-7.7813 -5.95,-13.0586 0,-5.4688 2.17,-10.0899 6.45,-13.75 -4.59,-2.1992 -6.91,-5.3516 -6.91,-9.3906 0,-3.3008 1.57,-6.1016 4.67,-8.3516 -4.99,-2.0078 -7.53,-5.5703 -7.53,-10.5898 0,-4.32036 1.99,-7.82036 5.92,-10.39067 C 1529.44,1.28906 1535.65,0 1544.03,0 c 17.76,0 26.76,5.17188 26.76,15.3984 0,3.2735 -1.02,6.0704 -3.06,8.3321 -2.02,2.25 -4.53,3.7304 -7.45,4.3789" /><path
         id="path144"
         style="fill:#172258;fill-opacity:1;fill-rule:nonzero;stroke:none"
         d="m 1595.52,25.8711 c -3.98,0 -7.37,1.5977 -10.07,4.7578 -2.73,3.1797 -4.11,8.5625 -4.11,16 0,7.0313 1.38,12.2305 4.11,15.4414 2.7,3.1914 6.05,4.8086 9.96,4.8086 3.81,0 7.19,-1.5976 10.03,-4.7578 2.86,-3.1914 4.32,-8.4102 4.32,-15.543 0,-7.0976 -1.4,-12.3867 -4.13,-15.7187 -2.7,-3.3086 -6.11,-4.9883 -10.11,-4.9883 z m 0.2,48.5586 c -6.82,0 -12.62,-2.5586 -17.21,-7.6094 -4.57,-5.0312 -6.9,-11.8594 -6.9,-20.2695 0,-7.9492 2.06,-14.6992 6.12,-20.082 4.1,-5.4102 9.87,-8.1485 17.16,-8.1485 7.22,0 13.19,2.6485 17.75,7.8985 4.53,5.2109 6.83,12.0429 6.83,20.2812 0,7.9219 -2.13,14.6211 -6.34,19.9102 -4.22,5.3281 -10.08,8.0195 -17.41,8.0195" /><path
         id="path146"
         style="fill:#172258;fill-opacity:1;fill-rule:nonzero;stroke:none"
         d="m 1644.65,31.2305 -14.22,41.4687 -0.09,0.2813 h -9.89 l 19.06,-53.2188 h 8.97 l 18.21,52.6875 0.19,0.5313 h -8.1 l -14.13,-41.75" /><path
         id="path148"
         style="fill:#172258;fill-opacity:1;fill-rule:nonzero;stroke:none"
         d="M 1668.57,19.7617 H 1681 v 12.4375 h -12.43 V 19.7617" /><path
         id="path150"
         style="fill:#172258;fill-opacity:1;fill-rule:nonzero;stroke:none"
         d="m 1727.27,43.0508 c 0,-3.1719 -0.7,-6.1406 -2.08,-8.8125 -1.39,-2.6875 -3.14,-4.7774 -5.2,-6.207 -2.04,-1.4415 -4.36,-2.1602 -6.9,-2.1602 -2.47,0 -4.79,0.9375 -6.86,2.8203 -2.07,1.8594 -3.11,5.3672 -3.11,10.418 v 33.8711 h -8.96 V 39.0781 c 0,-6.5781 1.58,-11.7383 4.69,-15.3281 3.12,-3.6094 7.47,-5.4297 12.92,-5.4297 7.03,0 12.51,3.4414 16.28,10.2188 v -8.7774 h 8.17 v 53.2188 h -8.95 V 43.0508" /><path
         id="path152"
         style="fill:#172258;fill-opacity:1;fill-rule:nonzero;stroke:none"
         d="m 1792.02,72.3086 0.6,0.6719 h -9.8 l -23.76,-26.3399 v 44.75 h -8.94 V 19.7617 h 8.94 v 16.4492 l 10.88,12.5079 15.05,-28.7383 0.12,-0.2188 h 9.36 l -18.64,34.3594 16.19,18.1875" /><path
         id="path154"
         style="fill:#172258;fill-opacity:1;fill-rule:nonzero;stroke:none"
         d="m 611.035,568.012 h -20.84 l 10.41,32.343 z m -14.879,43.48 -23.105,-71.101 -0.168,-0.52 h 8.262 l 6.335,20.703 h 25.704 l 7.031,-20.437 0.094,-0.266 h 9.89 l -23.34,71.352 -0.086,0.269 h -10.617" /><path
         id="path156"
         style="fill:#172258;fill-opacity:1;fill-rule:nonzero;stroke:none"
         d="m 678.258,539.871 v 30.699 c 0,6.625 -0.524,11.289 -1.559,13.852 -1.047,2.582 -2.992,4.937 -5.793,6.996 -2.808,2.062 -6.25,3.109 -10.222,3.109 -6.508,0 -11.938,-3.386 -16.157,-10.066 v 8.613 h -8.367 v -53.203 h 8.938 v 29.145 c 0,5.308 1.39,9.64 4.136,12.867 2.731,3.215 6.141,4.844 10.153,4.844 2.894,0 5.383,-0.961 7.41,-2.852 2.016,-1.887 3.039,-5.23 3.039,-9.934 v -34.07 h 8.422" /><path
         id="path158"
         style="fill:#172258;fill-opacity:1;fill-rule:nonzero;stroke:none"
         d="m 726.953,602.918 h 19.223 c 3.762,0 6.91,-1.02 9.371,-3.027 2.433,-1.985 3.668,-4.817 3.668,-8.411 0,-3.613 -1.18,-6.707 -3.496,-9.199 -2.317,-2.476 -5.891,-3.738 -10.637,-3.738 h -18.129 z m 38.813,-22.637 c 2.07,3.5 3.117,7.215 3.117,11.043 0,4.989 -1.875,9.645 -5.57,13.84 -3.711,4.203 -9.473,6.328 -17.137,6.328 h -28.321 v -71.621 h 9.098 v 30.668 h 19.633 l 13.062,-30.668 h 10.165 L 755.84,572.82 c 4.566,1.524 7.906,4.035 9.926,7.461" /><path
         id="path160"
         style="fill:#172258;fill-opacity:1;fill-rule:nonzero;stroke:none"
         d="m 798.754,545.953 c -3.973,0 -7.363,1.61 -10.07,4.774 -2.731,3.175 -4.11,8.562 -4.11,16.003 0,7.028 1.383,12.223 4.11,15.438 2.707,3.195 6.062,4.816 9.968,4.816 3.813,0 7.184,-1.605 10.032,-4.769 2.859,-3.184 4.308,-8.406 4.308,-15.535 0,-7.102 -1.387,-12.395 -4.113,-15.731 -2.711,-3.308 -6.113,-4.996 -10.125,-4.996 z m 0.211,48.574 c -6.832,0 -12.621,-2.562 -17.211,-7.609 -4.582,-5.039 -6.899,-11.855 -6.899,-20.266 0,-7.949 2.059,-14.707 6.122,-20.082 4.086,-5.41 9.863,-8.152 17.16,-8.152 7.215,0 13.179,2.664 17.73,7.898 4.543,5.227 6.844,12.051 6.844,20.286 0,7.918 -2.137,14.613 -6.34,19.906 -4.226,5.32 -10.082,8.019 -17.406,8.019" /><path
         id="path162"
         style="fill:#172258;fill-opacity:1;fill-rule:nonzero;stroke:none"
         d="m 841.508,539.871 v 53.203 h -8.942 v -53.203 h 8.942" /><path
         id="path164"
         style="fill:#172258;fill-opacity:1;fill-rule:nonzero;stroke:none"
         d="m 841.77,611.492 h -9.567 v -9.875 h 9.567 v 9.875" /><path
         id="path166"
         style="fill:#172258;fill-opacity:1;fill-rule:nonzero;stroke:none"
         d="m 889.039,573.941 v -34.07 h 8.422 v 30.699 c 0,6.625 -0.523,11.289 -1.559,13.852 -1.043,2.582 -2.992,4.937 -5.789,6.996 -2.812,2.062 -6.25,3.109 -10.226,3.109 -6.508,0 -11.938,-3.386 -16.157,-10.066 v 8.613 h -8.371 v -53.203 h 8.942 v 29.145 c 0,5.308 1.39,9.64 4.137,12.867 2.73,3.215 6.14,4.844 10.152,4.844 2.894,0 5.387,-0.961 7.41,-2.852 2.02,-1.887 3.039,-5.23 3.039,-9.934" /><path
         id="path168"
         style="fill:#172258;fill-opacity:1;fill-rule:nonzero;stroke:none"
         d="m 911.371,593.074 v -53.203 h 8.938 v 29.145 c 0,5.308 1.39,9.64 4.132,12.867 2.731,3.215 6.145,4.844 10.153,4.844 2.894,0 5.386,-0.961 7.414,-2.852 2.015,-1.887 3.035,-5.23 3.035,-9.934 v -34.07 h 8.426 v 30.699 c 0,6.625 -0.524,11.289 -1.559,13.852 -1.047,2.582 -2.992,4.937 -5.793,6.996 -2.812,2.062 -6.25,3.109 -10.222,3.109 -6.508,0 -11.942,-3.386 -16.161,-10.066 v 8.613 h -8.363" /><path
         id="path170"
         style="fill:#172258;fill-opacity:1;fill-rule:nonzero;stroke:none"
         d="m 636.023,384.813 c -3.304,0 -5.949,0 -14.796,0.273 v 87.312 h 7.312 c 24.082,0 32.949,-1.687 41.219,-7.808 8.301,-6.516 12.871,-19.629 12.871,-36.926 0,-30.84 -13.066,-42.851 -46.606,-42.851 z m 2.497,-105.059 h -17.293 v 96.062 l 4.515,0.2 c 4.555,0.203 8.16,0.371 10.598,0.371 39.047,0 51.586,-11.938 51.586,-49.094 0,-36.438 -11.543,-47.539 -49.406,-47.539 z m 65.949,3.984 c 15.265,10.489 23.676,25.625 23.676,42.617 0,30.372 -19.743,49.7 -55.836,55.02 30.871,8.152 47.109,24.59 47.109,47.852 0,15.144 -6.336,27.832 -18.32,36.66 -15.887,12.07 -31.953,15.554 -71.621,15.554 h -70.301 v -9.043 h 25.879 V 279.754 h -25.879 v -9.055 h 75.914 c 39.289,0 54.855,2.934 69.379,13.039" /><path
         id="path172"
         style="fill:#172258;fill-opacity:1;fill-rule:nonzero;stroke:none"
         d="m 832.691,290.789 c -4.093,-8.769 -12.578,-13.215 -25.218,-13.215 -11.434,0 -18.457,2.903 -23.489,9.707 -4.703,6.457 -5.031,9.485 -5.031,46.242 0,32.415 0.309,36.77 2.981,42.422 h 0.004 c 4.152,8.899 12.503,13.223 25.535,13.223 11.062,0 18.211,-2.996 23.172,-9.719 4.703,-6.453 5.031,-9.461 5.031,-45.926 0,-32.683 -0.305,-37.082 -2.985,-42.734 z m 39.161,42.734 c 0,36.18 -28.879,65.625 -64.379,65.625 -35.672,0 -64.696,-29.445 -64.696,-65.625 0,-36.355 29.024,-65.937 64.696,-65.937 35.5,0 64.379,29.582 64.379,65.937" /><path
         id="path174"
         style="fill:#172258;fill-opacity:1;fill-rule:nonzero;stroke:none"
         d="m 963.176,279.754 v -9.055 h 70.454 v 9.055 h -20.57 v 67.793 c 0,23.652 -1.7,30.945 -9.1,38.996 -6.772,7.422 -20.019,12.605 -32.206,12.605 -16.598,0 -28.32,-5.058 -38.492,-16.789 v 13.672 H 881.5 v -9.051 h 20.887 V 279.754 H 881.5 v -9.055 h 70.465 v 9.055 h -18.703 v 35.691 c 0,37.219 1.761,51.164 7.539,59.668 4.629,6.653 13.844,11.867 20.976,11.867 6.082,0 10.957,-2.238 14.485,-6.64 4.761,-5.945 5.929,-16.543 5.929,-53.985 v -46.601 h -19.015" /><path
         id="path176"
         style="fill:#172258;fill-opacity:1;fill-rule:nonzero;stroke:none"
         d="m 1132.43,380.34 c 4.77,-5.945 5.93,-16.543 5.93,-53.985 v -46.601 h -19.01 v -9.055 h 70.45 v 9.055 h -20.57 v 67.793 c 0,23.652 -1.7,30.945 -9.09,38.996 -6.78,7.422 -20.03,12.605 -32.22,12.605 -16.59,0 -28.32,-5.058 -38.49,-16.789 v 13.672 h -51.76 v -9.051 h 20.88 V 279.754 h -20.88 v -9.055 h 70.46 v 9.055 h -18.7 v 35.691 c 0,37.219 1.77,51.164 7.54,59.668 4.63,6.653 13.84,11.867 20.98,11.867 6.08,0 10.96,-2.238 14.48,-6.64" /><path
         id="path178"
         style="fill:#172258;fill-opacity:1;fill-rule:nonzero;stroke:none"
         d="m 1230.63,351.141 v 5.761 c 0,23.516 6.56,32.266 24.16,32.266 9.6,0 16.32,-3.992 18.95,-11.262 2.01,-5.191 2.37,-7.547 2.39,-26.765 z m 68.57,-36.473 -0.26,-1.059 c -5.73,-22.566 -20.82,-36.035 -40.41,-36.035 -10.5,0 -18.92,4.621 -23.72,13.012 -3.59,6.277 -4.18,12.344 -4.18,43.25 v 8.254 h 80.84 l -0.09,1.504 c -2.24,33.75 -24.2,55.554 -55.97,55.554 -31.97,0 -60.01,-30.808 -60.01,-65.937 0,-34.348 28.9,-65.625 60.64,-65.625 26.67,0 48.01,18.254 53.13,45.422 l 0.31,1.66 h -10.28" /><path
         id="path180"
         style="fill:#172258;fill-opacity:1;fill-rule:nonzero;stroke:none"
         d="m 1394.28,332.984 v -4.761 c 0,-15.571 -1.26,-24.602 -4.2,-30.2 -4.72,-8.835 -12.44,-13.906 -21.2,-13.906 -11.19,0 -17.61,6.875 -17.61,18.86 0,19.277 13.28,28.566 43.01,30.007 z m 27.28,-65.398 c 8.87,0 15.04,2.637 22.78,9.727 l 0.96,0.886 -5.46,6.828 -1.1,-0.925 c -5.6,-4.661 -5.88,-4.661 -8.14,-4.661 -5.14,0 -5.45,0 -5.45,27.278 v 41.765 c 0,27.176 -0.18,29.422 -7.54,37.121 -7.72,8.36 -22.21,13.543 -37.82,13.543 -26.83,0 -50.36,-15.371 -50.36,-32.89 0,-8.313 6.37,-14.817 14.51,-14.817 8.54,0 14.5,6.086 14.5,14.817 0,4.133 -1.72,7.004 -4.67,10.539 -1.19,1.492 -1.25,1.805 -1.25,2.547 0,4.836 11.36,11.687 21.96,11.687 6.76,0 12.67,-2.039 15.81,-5.468 3.28,-3.563 3.99,-6.043 3.99,-24.293 v -20.129 c -47.46,-1.211 -73.57,-16.289 -73.57,-42.532 0,-18.55 13.84,-31.023 34.45,-31.023 16.1,0 30.4,7.891 39.73,21.785 2.9,-14.09 12.26,-21.785 26.67,-21.785" /><path
         id="path182"
         style="fill:#172258;fill-opacity:1;fill-rule:nonzero;stroke:none"
         d="m 1506.04,196.52 c -22.09,0 -36.94,12.589 -36.94,31.332 0,8.816 2.83,15.476 9.74,22.839 l 1.3,-0.128 c 7.36,-0.743 7.36,-0.743 17.79,-0.743 1.91,0 8.72,0.024 16.21,0.305 4.52,0 8.51,0.137 11.24,0.234 1.41,0.047 2.47,0.086 3.1,0.086 5.55,0 10.59,0.168 13.22,0.254 0.9,0.031 1.5,0.051 1.74,0.051 13.49,0 16.05,-4.102 16.05,-11.68 0,-23.855 -23.48,-42.55 -53.45,-42.55 z m 1.25,121.886 c -14.32,0 -18.24,5.996 -18.24,27.903 0,40.546 2.85,43.789 18.86,43.789 14.29,0 17.92,-2.953 17.92,-30.078 0,-22.637 -0.66,-29.602 -3.27,-33.938 -2.58,-4.871 -8.15,-7.676 -15.27,-7.676 z m 47.07,66.399 c 0.46,0 1.34,0 2.05,-3.86 1.72,-8.672 7.29,-10.488 11.66,-10.488 7.5,0 12.95,5.703 12.95,13.563 0,9.054 -6.59,15.128 -16.38,15.128 -7.11,0 -13.71,-3.671 -21.9,-12.214 -9.24,8.101 -21.16,12.214 -35.45,12.214 -28.89,0 -50.67,-19.503 -50.67,-45.363 0,-13.726 5.68,-24.629 18.36,-35.113 -17.8,-12.168 -26.46,-24.961 -26.46,-39.074 0,-13.028 7.18,-22.664 20.36,-27.508 -13.98,-5.52 -21.61,-15.235 -21.61,-27.68 0,-21.219 26.22,-38.492 58.45,-38.492 38.39,0 66.25,24.977 66.25,59.383 0,25.246 -10.62,35.078 -37.88,35.078 l -52.06,-0.625 c -15.24,0 -18.23,3.711 -18.23,10.129 0,7.398 6.78,15.672 19.59,23.953 8.33,-3.789 13.4,-4.785 23.9,-4.785 29.06,0 50.96,18.691 50.96,43.484 0,10.559 -2.85,19.414 -9.25,28.567 3.03,3.211 3.94,3.703 5.36,3.703" /><path
         id="path184"
         style="fill:#172258;fill-opacity:1;fill-rule:nonzero;stroke:none"
         d="m 1653.94,332.984 v -4.761 c 0,-15.571 -1.25,-24.602 -4.2,-30.2 -4.71,-8.835 -12.44,-13.906 -21.2,-13.906 -11.2,0 -17.61,6.875 -17.61,18.86 0,19.277 13.28,28.566 43.01,30.007 z m 51.02,-54.785 -5.46,6.828 -1.1,-0.925 c -5.6,-4.661 -5.88,-4.661 -8.14,-4.661 -5.14,0 -5.46,0 -5.46,27.278 v 41.765 c 0,27.176 -0.16,29.422 -7.53,37.121 -7.71,8.36 -22.2,13.543 -37.83,13.543 -26.81,0 -50.34,-15.371 -50.34,-32.89 0,-8.313 6.37,-14.817 14.49,-14.817 8.55,0 14.52,6.086 14.52,14.817 0,4.133 -1.72,7.004 -4.68,10.539 -1.19,1.492 -1.25,1.805 -1.25,2.547 0,4.836 11.36,11.687 21.97,11.687 6.75,0 12.66,-2.039 15.8,-5.468 3.28,-3.563 3.99,-6.043 3.99,-24.293 v -20.129 c -47.46,-1.211 -73.57,-16.289 -73.57,-42.532 0,-18.55 13.84,-31.023 34.45,-31.023 16.1,0 30.39,7.891 39.73,21.785 2.9,-14.09 12.26,-21.785 26.67,-21.785 8.87,0 15.04,2.637 22.77,9.727 l 0.97,0.886" /><path
         id="path186"
         style="fill:#172258;fill-opacity:1;fill-rule:nonzero;stroke:none"
         d="m 1708.49,279.754 v -9.055 h 72.33 v 9.055 h -20.58 v 116.277 h -51.75 v -9.051 h 20.89 V 279.754 h -20.89" /><path
         id="path188"
         style="fill:#172258;fill-opacity:1;fill-rule:nonzero;stroke:none"
         d="m 1763.05,457.906 c 0,10.754 -8.56,19.172 -19.49,19.172 -10.75,0 -18.55,-8.058 -18.55,-19.172 0,-10.586 8.43,-18.863 19.18,-18.863 10.05,0 18.86,8.809 18.86,18.863" /><path
         id="path190"
         style="fill:#172258;fill-opacity:1;fill-rule:nonzero;stroke:none"
         d="m 1869.19,399.148 c -13.65,0 -24.11,-8.671 -32.57,-27.168 v 24.051 h -51.77 v -9.051 h 20.89 V 279.754 h -20.89 v -9.055 h 72.34 v 9.055 h -20.57 v 27.59 c 0,36.074 3.1,53.511 12.27,69.097 2.94,4.907 5.98,7.114 7.2,7.114 0.41,0 1.37,0 1.71,-3.039 0.67,-12.227 5.62,-18.164 15.13,-18.164 10,0 16.99,7.121 16.99,17.316 0,11.285 -8.72,19.48 -20.73,19.48" /><path
         id="path192"
         style="fill:#172258;fill-opacity:1;fill-rule:nonzero;stroke:none"
         d="M 2169.77,154.156 H 557.66 v 4.004 h 1612.11 v -4.004" /><path
         id="path194"
         style="fill:#172258;fill-opacity:1;fill-rule:nonzero;stroke:none"
         d="M 2169.77,674.27 H 557.66 v 3.996 h 1612.11 v -3.996" /></g></g></svg>